<svg width="22" height="27" viewBox="0 0 22 27" fill="none" xmlns="http://www.w3.org/2000/svg">
<path d="M4.72501 27C3.42001 27 2.30625 26.5388 1.38375 25.6163C0.461251 24.6938 0 23.58 0 22.275V4.72501C0 3.42001 0.461251 2.30625 1.38375 1.38375C2.30625 0.461251 3.42001 0 4.72501 0H21.6V20.25C21.0375 20.25 20.5594 20.4469 20.1657 20.8407C19.7719 21.2344 19.575 21.7125 19.575 22.275C19.575 22.8375 19.7719 23.3157 20.1657 23.7094C20.5594 24.1032 21.0375 24.3 21.6 24.3V27H4.72501ZM2.7 17.9888C3.015 17.8313 3.34126 17.7188 3.67876 17.6513C4.01626 17.5838 4.36501 17.55 4.72501 17.55H5.40001V2.7H4.72501C4.16251 2.7 3.68438 2.89688 3.29063 3.29063C2.89688 3.68438 2.7 4.16251 2.7 4.72501V17.9888ZM8.10001 17.55H18.9V2.7H8.10001V17.55ZM4.72501 24.3H17.3138C17.1788 23.985 17.0719 23.6644 16.9932 23.3382C16.9144 23.0119 16.875 22.6575 16.875 22.275C16.875 21.915 16.9088 21.5663 16.9763 21.2288C17.0438 20.8913 17.1563 20.565 17.3138 20.25H4.72501C4.14001 20.25 3.65626 20.4469 3.27376 20.8407C2.89125 21.2344 2.7 21.7125 2.7 22.275C2.7 22.86 2.89125 23.3438 3.27376 23.7263C3.65626 24.1088 4.14001 24.3 4.72501 24.3Z" fill="#1C1B1F"/>
</svg>
