<svg width="51" height="50" viewBox="0 0 51 50" fill="none" xmlns="http://www.w3.org/2000/svg">
<path d="M32.5625 15L25.0625 7.5L32.5625 0L40.0625 7.5L32.5625 15ZM45.0625 22.5L40.0625 17.5L45.0625 12.5L50.0625 17.5L45.0625 22.5ZM25.25 50C21.75 50 18.4688 49.3333 15.4062 48C12.3438 46.6667 9.67708 44.8646 7.40625 42.5938C5.13542 40.3229 3.33333 37.6562 2 34.5938C0.666667 31.5313 0 28.25 0 24.75C0 18.6667 1.9375 13.3021 5.8125 8.65625C9.6875 4.01042 14.625 1.125 20.625 0C19.875 4.125 20.1042 8.15625 21.3125 12.0938C22.5208 16.0312 24.6042 19.4792 27.5625 22.4375C30.5208 25.3958 33.9688 27.4792 37.9062 28.6875C41.8438 29.8958 45.875 30.125 50 29.375C48.9167 35.375 46.0417 40.3125 41.375 44.1875C36.7083 48.0625 31.3333 50 25.25 50ZM25.25 45C28.9167 45 32.3125 44.0833 35.4375 42.25C38.5625 40.4167 41.0208 37.8958 42.8125 34.6875C39.2292 34.3542 35.8333 33.4479 32.625 31.9688C29.4167 30.4896 26.5417 28.4792 24 25.9375C21.4583 23.3958 19.4375 20.5208 17.9375 17.3125C16.4375 14.1042 15.5417 10.7083 15.25 7.125C12.0417 8.91667 9.53125 11.3854 7.71875 14.5312C5.90625 17.6771 5 21.0833 5 24.75C5 30.375 6.96875 35.1562 10.9062 39.0938C14.8438 43.0312 19.625 45 25.25 45Z" fill="#EAD18C"/>
</svg>
