<svg width="21" height="21" viewBox="0 0 21 21" fill="none" xmlns="http://www.w3.org/2000/svg">
<path d="M7.875 21C6.88333 21 6.02778 20.6549 5.30833 19.9646C4.58889 19.2743 4.18056 18.4431 4.08333 17.4708C2.91667 17.3153 1.94444 16.8 1.16667 15.925C0.388889 15.05 0 14.0194 0 12.8333C0 12.425 0.0534722 12.0215 0.160417 11.6229C0.267361 11.2243 0.427778 10.85 0.641667 10.5C0.427778 10.15 0.267361 9.78056 0.160417 9.39167C0.0534722 9.00278 0 8.59444 0 8.16667C0 6.98056 0.388889 5.95486 1.16667 5.08958C1.94444 4.22431 2.90694 3.71389 4.05417 3.55833C4.1125 2.56667 4.51111 1.72569 5.25 1.03542C5.98889 0.345139 6.86389 0 7.875 0C8.38056 0 8.85208 0.0972222 9.28958 0.291667C9.72708 0.486111 10.1306 0.748611 10.5 1.07917C10.85 0.748611 11.2486 0.486111 11.6958 0.291667C12.1431 0.0972222 12.6194 0 13.125 0C14.1361 0 15.0062 0.340278 15.7354 1.02083C16.4646 1.70139 16.8583 2.5375 16.9167 3.52917C18.0639 3.68472 19.0312 4.2 19.8188 5.075C20.6063 5.95 21 6.98056 21 8.16667C21 8.59444 20.9465 9.00278 20.8396 9.39167C20.7326 9.78056 20.5722 10.15 20.3583 10.5C20.5722 10.85 20.7326 11.2243 20.8396 11.6229C20.9465 12.0215 21 12.425 21 12.8333C21 14.0389 20.6063 15.0743 19.8188 15.9396C19.0312 16.8049 18.0542 17.3153 16.8875 17.4708C16.7903 18.4431 16.3868 19.2743 15.6771 19.9646C14.9674 20.6549 14.1167 21 13.125 21C12.6389 21 12.1674 20.9076 11.7104 20.7229C11.2535 20.5382 10.85 20.2806 10.5 19.95C10.1306 20.2806 9.72222 20.5382 9.275 20.7229C8.82778 20.9076 8.36111 21 7.875 21ZM11.6667 3.79167V17.2083C11.6667 17.6167 11.8076 17.9618 12.0896 18.2437C12.3715 18.5257 12.7167 18.6667 13.125 18.6667C13.5139 18.6667 13.8493 18.5111 14.1312 18.2C14.4132 17.8889 14.5639 17.5389 14.5833 17.15C14.175 16.9944 13.8007 16.7854 13.4604 16.5229C13.1201 16.2604 12.8139 15.9444 12.5417 15.575C12.3472 15.3028 12.2743 15.0111 12.3229 14.7C12.3715 14.3889 12.5319 14.1361 12.8042 13.9417C13.0764 13.7472 13.3681 13.6743 13.6792 13.7229C13.9903 13.7715 14.2431 13.9319 14.4375 14.2042C14.6514 14.5153 14.9236 14.7535 15.2542 14.9187C15.5847 15.084 15.9444 15.1667 16.3333 15.1667C16.975 15.1667 17.5243 14.9382 17.9813 14.4812C18.4382 14.0243 18.6667 13.475 18.6667 12.8333C18.6667 12.7361 18.6618 12.6389 18.6521 12.5417C18.6424 12.4444 18.6181 12.3472 18.5792 12.25C18.2486 12.4444 17.8937 12.5903 17.5146 12.6875C17.1354 12.7847 16.7417 12.8333 16.3333 12.8333C16.0028 12.8333 15.7257 12.7215 15.5021 12.4979C15.2785 12.2743 15.1667 11.9972 15.1667 11.6667C15.1667 11.3361 15.2785 11.059 15.5021 10.8354C15.7257 10.6118 16.0028 10.5 16.3333 10.5C16.975 10.5 17.5243 10.2715 17.9813 9.81458C18.4382 9.35764 18.6667 8.80833 18.6667 8.16667C18.6667 7.525 18.4382 6.98056 17.9813 6.53333C17.5243 6.08611 16.975 5.85278 16.3333 5.83333C16.1194 6.18333 15.8424 6.48958 15.5021 6.75208C15.1618 7.01458 14.7875 7.22361 14.3792 7.37917C14.0681 7.49583 13.7667 7.48611 13.475 7.35C13.1833 7.21389 12.9889 6.99028 12.8917 6.67917C12.7944 6.36806 12.809 6.06667 12.9354 5.775C13.0618 5.48333 13.2806 5.28889 13.5917 5.19167C13.8833 5.09444 14.1215 4.91944 14.3062 4.66667C14.491 4.41389 14.5833 4.12222 14.5833 3.79167C14.5833 3.38333 14.4424 3.03819 14.1604 2.75625C13.8785 2.47431 13.5333 2.33333 13.125 2.33333C12.7167 2.33333 12.3715 2.47431 12.0896 2.75625C11.8076 3.03819 11.6667 3.38333 11.6667 3.79167ZM9.33333 17.2083V3.79167C9.33333 3.38333 9.19236 3.03819 8.91042 2.75625C8.62847 2.47431 8.28333 2.33333 7.875 2.33333C7.46667 2.33333 7.12153 2.47431 6.83958 2.75625C6.55764 3.03819 6.41667 3.38333 6.41667 3.79167C6.41667 4.10278 6.50417 4.38958 6.67917 4.65208C6.85417 4.91458 7.0875 5.09444 7.37917 5.19167C7.69028 5.28889 7.91389 5.48333 8.05 5.775C8.18611 6.06667 8.20556 6.36806 8.10833 6.67917C7.99167 6.99028 7.7875 7.21389 7.49583 7.35C7.20417 7.48611 6.90278 7.49583 6.59167 7.37917C6.18333 7.22361 5.80903 7.01458 5.46875 6.75208C5.12847 6.48958 4.85139 6.18333 4.6375 5.83333C4.01528 5.85278 3.47569 6.09097 3.01875 6.54792C2.56181 7.00486 2.33333 7.54444 2.33333 8.16667C2.33333 8.80833 2.56181 9.35764 3.01875 9.81458C3.47569 10.2715 4.025 10.5 4.66667 10.5C4.99722 10.5 5.27431 10.6118 5.49792 10.8354C5.72153 11.059 5.83333 11.3361 5.83333 11.6667C5.83333 11.9972 5.72153 12.2743 5.49792 12.4979C5.27431 12.7215 4.99722 12.8333 4.66667 12.8333C4.25833 12.8333 3.86458 12.7847 3.48542 12.6875C3.10625 12.5903 2.75139 12.4444 2.42083 12.25C2.38194 12.3472 2.35764 12.4444 2.34792 12.5417C2.33819 12.6389 2.33333 12.7361 2.33333 12.8333C2.33333 13.475 2.56181 14.0243 3.01875 14.4812C3.47569 14.9382 4.025 15.1667 4.66667 15.1667C5.05556 15.1667 5.41528 15.084 5.74583 14.9187C6.07639 14.7535 6.34861 14.5153 6.5625 14.2042C6.75694 13.9319 7.00972 13.7715 7.32083 13.7229C7.63194 13.6743 7.92361 13.7472 8.19583 13.9417C8.46806 14.1361 8.62847 14.3889 8.67708 14.7C8.72569 15.0111 8.65278 15.3028 8.45833 15.575C8.18611 15.9444 7.875 16.2653 7.525 16.5375C7.175 16.8097 6.79583 17.0236 6.3875 17.1792C6.40694 17.5681 6.5625 17.9132 6.85417 18.2146C7.14583 18.516 7.48611 18.6667 7.875 18.6667C8.28333 18.6667 8.62847 18.5257 8.91042 18.2437C9.19236 17.9618 9.33333 17.6167 9.33333 17.2083Z" fill="#1C1B1F"/>
</svg>
