<svg width="27" height="27" viewBox="0 0 27 27" fill="none" xmlns="http://www.w3.org/2000/svg">
<mask id="mask0_1_1364" style="mask-type:alpha" maskUnits="userSpaceOnUse" x="-3" y="-3" width="33" height="33">
<rect x="-2.73395" y="-2.69996" width="32.4001" height="32.4001" fill="#D9D9D9"/>
</mask>
<g mask="url(#mask0_1_1364)">
<path d="M12.42 11.5088C12.8925 11.5088 13.2919 11.3456 13.6181 11.0194C13.9444 10.6931 14.1075 10.2938 14.1075 9.82126C14.1075 9.34876 13.9444 8.94939 13.6181 8.62314C13.2919 8.29689 12.8925 8.13376 12.42 8.13376C11.9475 8.13376 11.5481 8.29689 11.2219 8.62314C10.8956 8.94939 10.7325 9.34876 10.7325 9.82126C10.7325 10.2938 10.8956 10.6931 11.2219 11.0194C11.5481 11.3456 11.9475 11.5088 12.42 11.5088ZM25.0088 27C24.0638 27 22.7925 26.6063 21.195 25.8188C19.5975 25.0313 17.8875 23.9625 16.065 22.6125C15.6375 22.725 15.2044 22.8094 14.7656 22.8657C14.3269 22.9219 13.8825 22.95 13.4325 22.95C10.8 22.95 8.57251 22.0388 6.75001 20.2163C4.92751 18.3938 4.01626 16.1663 4.01626 13.5338C4.01626 13.0838 4.05001 12.6338 4.11751 12.1838C4.18501 11.7338 4.27501 11.295 4.38751 10.8675C3.06 9.04501 1.99688 7.34064 1.19813 5.75438C0.399376 4.16813 0 2.9025 0 1.9575C0 1.35 0.16875 0.871876 0.506251 0.523126C0.843751 0.174375 1.305 0 1.89 0C2.475 0 3.23438 0.2025 4.16813 0.607501C5.10188 1.0125 6.39001 1.69875 8.03251 2.66625C7.56001 2.91375 7.12126 3.1725 6.71626 3.4425C6.31126 3.71251 5.91751 4.00501 5.53501 4.32001C5.10751 4.07251 4.69126 3.85876 4.28626 3.67876C3.88126 3.49876 3.45376 3.3075 3.00375 3.105C3.40876 3.96001 3.84188 4.79251 4.30313 5.60251C4.76438 6.41251 5.25376 7.21126 5.77126 7.99876C6.62626 6.78376 7.71751 5.82751 9.04501 5.13001C10.3725 4.43251 11.835 4.08376 13.4325 4.08376C16.065 4.08376 18.2982 5.00063 20.1319 6.83438C21.9657 8.66814 22.8825 10.9013 22.8825 13.5338C22.8825 15.1313 22.5282 16.5938 21.8194 17.9213C21.1107 19.2488 20.1488 20.34 18.9338 21.195C19.7213 21.7125 20.5257 22.2075 21.3469 22.68C22.1682 23.1525 23.0063 23.58 23.8613 23.9625C23.6813 23.535 23.4957 23.1188 23.3044 22.7138C23.1132 22.3088 22.8938 21.8925 22.6463 21.465C22.9838 21.0825 23.2875 20.6775 23.5575 20.25C23.8275 19.8225 24.075 19.3838 24.3 18.9338C25.335 20.6888 26.0382 21.9994 26.4094 22.8657C26.7807 23.7319 26.9663 24.4575 26.9663 25.0425C26.9663 25.695 26.7863 26.1844 26.4263 26.5107C26.0663 26.8369 25.5938 27 25.0088 27ZM15.795 17.5838C16.1775 17.5838 16.4981 17.4544 16.7569 17.1956C17.0157 16.9369 17.145 16.6163 17.145 16.2338C17.145 15.8513 17.0157 15.5306 16.7569 15.2719C16.4981 15.0131 16.1775 14.8838 15.795 14.8838C15.4125 14.8838 15.0919 15.0131 14.8331 15.2719C14.5744 15.5306 14.445 15.8513 14.445 16.2338C14.445 16.6163 14.5744 16.9369 14.8331 17.1956C15.0919 17.4544 15.4125 17.5838 15.795 17.5838ZM17.4825 12.8588C17.775 12.8588 18.0169 12.7631 18.2082 12.5719C18.3994 12.3806 18.495 12.1388 18.495 11.8463C18.495 11.5538 18.3994 11.3119 18.2082 11.1206C18.0169 10.9294 17.775 10.8338 17.4825 10.8338C17.19 10.8338 16.9481 10.9294 16.7569 11.1206C16.5656 11.3119 16.47 11.5538 16.47 11.8463C16.47 12.1388 16.5656 12.3806 16.7569 12.5719C16.9481 12.7631 17.19 12.8588 17.4825 12.8588ZM13.0613 20.2163C11.9138 19.2263 10.8113 18.2025 9.75376 17.145C8.69626 16.0875 7.68376 14.985 6.71626 13.8375C6.76126 14.6925 6.95251 15.4969 7.29001 16.2506C7.62751 17.0044 8.08876 17.6738 8.67376 18.2588C9.25876 18.8438 9.92251 19.305 10.665 19.6425C11.4075 19.98 12.2063 20.1713 13.0613 20.2163ZM16.5375 19.5075C17.6175 18.945 18.495 18.1294 19.17 17.0606C19.845 15.9919 20.1825 14.805 20.1825 13.5C20.1825 11.6325 19.5244 10.0463 18.2082 8.74126C16.8919 7.43626 15.3 6.78376 13.4325 6.78376C12.1275 6.78376 10.9463 7.12126 9.88876 7.79626C8.83126 8.47126 8.02126 9.34876 7.45876 10.4288C8.74126 12.1388 10.1475 13.7588 11.6775 15.2888C13.2075 16.8188 14.8275 18.225 16.5375 19.5075Z" fill="#1C1B1F"/>
</g>
</svg>
