<svg width="60" height="61" viewBox="0 0 60 61" fill="none" xmlns="http://www.w3.org/2000/svg">
<path d="M30 15.9166C21.9587 15.9166 15.4166 22.4587 15.4166 30.5C15.4166 38.5412 21.9587 45.0833 30 45.0833C38.0412 45.0833 44.5833 38.5412 44.5833 30.5C44.5833 22.4587 38.0412 15.9166 30 15.9166ZM30 42.1666C23.5673 42.1666 18.3333 36.9327 18.3333 30.5C18.3333 24.0673 23.5673 18.8333 30 18.8333C36.4327 18.8333 41.6666 24.0673 41.6666 30.5C41.6666 36.9327 36.4327 42.1666 30 42.1666Z" fill="#DC2626"/>
<path d="M36.8644 27.156L34.8023 25.094L30 29.8963L25.1977 25.094L23.1356 27.156L27.938 30.5L23.1356 33.844L25.1977 35.906L30 31.1037L34.8023 35.906L36.8644 33.844L32.062 30.5L36.8644 27.156Z" fill="#DC2626"/>
</svg>
