<svg width="24" height="24" viewBox="0 0 24 24" fill="none" xmlns="http://www.w3.org/2000/svg">
<path d="M20.9203 2.38C19.7977 2.12857 18.6508 2.00114 17.5003 2C16.4138 1.93101 15.3244 2.0775 14.2947 2.43103C13.265 2.78456 12.3153 3.33816 11.5003 4.06C10.427 5.13333 9.36366 6.20333 8.31032 7.27C7.10032 7.14 4.23032 7.07 2.31032 9.01C2.12407 9.19736 2.01953 9.45081 2.01953 9.715C2.01953 9.97918 2.12407 10.2326 2.31032 10.42L13.6103 21.74C13.7977 21.9262 14.0511 22.0308 14.3153 22.0308C14.5795 22.0308 14.833 21.9262 15.0203 21.74C16.9703 19.74 16.9103 16.92 16.7903 15.74L20.0003 12.54C23.1903 9.35 21.7403 3.36 21.6803 3.11C21.6342 2.92963 21.5386 2.76574 21.4043 2.63677C21.27 2.50779 21.1024 2.41887 20.9203 2.38ZM18.5603 11.13L15.0003 14.67C14.885 14.7864 14.8001 14.9294 14.753 15.0863C14.706 15.2432 14.6982 15.4093 14.7303 15.57C14.9463 16.9078 14.7583 18.2796 14.1903 19.51L4.52032 9.82C5.77017 9.24477 7.16733 9.07012 8.52032 9.32C8.6804 9.34084 8.84314 9.32262 8.99464 9.2669C9.14615 9.21117 9.28191 9.1196 9.39032 9C9.39032 9 10.7903 7.55 12.9003 5.44C14.1977 4.39811 15.8404 3.88389 17.5003 4C18.2811 4.00387 19.0603 4.07075 19.8303 4.2C20.0703 5.63 20.4503 9.24 18.5603 11.13Z" fill="black"/>
<path d="M15.7303 10.3C16.8349 10.3 17.7303 9.40462 17.7303 8.30005C17.7303 7.19548 16.8349 6.30005 15.7303 6.30005C14.6257 6.30005 13.7303 7.19548 13.7303 8.30005C13.7303 9.40462 14.6257 10.3 15.7303 10.3Z" fill="black"/>
<path d="M5.00031 16C3.00031 17 3.00031 21 3.00031 21C4.85137 20.9472 6.62345 20.2384 8.00031 19L5.00031 16Z" fill="black"/>
</svg>
